# xmcd
# 
# Track frame offsets:
#     150
#     18070
#     36182
#     52885
# 
# Disc length: 958
# 
# Revision: 3
# Processed by: cddbd v1.5.2PL0 Copyright (c) Steve Scherf et al.
# Submitted via: fre:ac v1.0.31
# 
DISCID=2203bc04
DTITLE=Total Touch - Touch Me There
DYEAR=1996
DGENRE=Dance
TTITLE0=Touch Me There
TTITLE1=Show Me Your Smile
TTITLE2=Touch Me There (Acapella)
TTITLE3=Touch Me There (B.T.T. and Me Mix)
EXTD=
EXTT0=
EXTT1=
EXTT2=
EXTT3=
PLAYORDER=
